<svg id="Layer_1" data-name="Layer 1" xmlns="http://www.w3.org/2000/svg" viewBox="0 0 36.17 31.65"><defs><style>.cls-1{fill:#016d4a;}.cls-2{fill:#009b4d;}.cls-3{fill:#17b5ea;}.cls-4{fill:#7dbb47;}</style></defs><path id="Fill-1" class="cls-1" d="M12.75,22.8a7.46,7.46,0,0,1-1.1-1.4L17.17,31A1,1,0,0,0,19,31l5.52-9.59a7.53,7.53,0,0,1-11.77,1.4"/><path id="Fill-3" class="cls-2" d="M12.75,22.8a7.54,7.54,0,0,0,11.77-1.4l.21-.36a7.5,7.5,0,0,0,.9-3.59C25.63,13.3,23,8.63,18,5.16,13,8.63,10.54,13.3,10.54,17.45a7.61,7.61,0,0,0,.9,3.59l.21.36a7.46,7.46,0,0,0,1.1,1.4"/><path id="Fill-5" class="cls-3" d="M1.13,0C.12,0-.29.68.22,1.55L11.44,21a7.58,7.58,0,0,1-.9-3.59C10.54,13.3,13,8.63,18,5.16A31.73,31.73,0,0,0,1.13,0"/><path id="Fill-7" class="cls-4" d="M24.73,21,36,1.55C36.46.68,36.05,0,35,0,27.71.29,22,2.33,18,5.16c5,3.47,7.66,8.14,7.66,12.29a7.5,7.5,0,0,1-.9,3.59"/></svg>