<?xml version="1.0" encoding="UTF-8"?>
<svg width="110px" height="33px" viewBox="0 0 110 33" version="1.1" xmlns="http://www.w3.org/2000/svg" xmlns:xlink="http://www.w3.org/1999/xlink">
    <title>ventia_logo copy</title>
    <g id="Symbols" stroke="none" stroke-width="1" fill="none" fill-rule="evenodd">
        <g id="ventia_logo-copy" fill-rule="nonzero">
            <path d="M86.0789651,22.8016667 C85.6594302,22.3798718 85.2897791,21.910641 84.977686,21.4016667 L90.5007093,30.9888461 C91.0059419,31.8670513 91.8258256,31.8670513 92.3310581,30.9888461 L97.8540814,21.4016667 C97.5419883,21.910641 97.1723372,22.3811539 96.7528023,22.8016667 C95.3880349,24.1696153 93.5001279,25.0170513 91.4165232,25.0170513 C89.3316396,25.0170513 87.4437326,24.1696153 86.0789651,22.8016667" id="Fill-1" fill="#016D4A"></path>
            <path d="M86.0789651,22.8016667 C87.4437326,24.1696153 89.3316396,25.0170513 91.4165232,25.0170513 C93.5001279,25.0170513 95.3880349,24.1696153 96.7528023,22.8016667 C97.1723372,22.3811539 97.5419883,21.910641 97.8540814,21.4016667 L98.0612907,21.0426923 C98.635593,19.9734616 98.9630349,18.7503847 98.9630349,17.4516667 C98.9630349,13.3003847 96.3153604,8.6324359 91.3001279,5.16448718 C86.3539651,8.6324359 83.8687326,13.3003847 83.8687326,17.4516667 C83.8687326,18.7503847 84.1961744,19.9747436 84.7717558,21.0439743 L84.977686,21.4016667 C85.2897791,21.910641 85.6594302,22.3798718 86.0789651,22.8016667" id="Fill-3" fill="#009B4D"></path>
            <path d="M74.4598953,0.00461538461 C73.4507093,-0.0376923077 73.041407,0.677692308 73.5466396,1.55461539 L84.7717558,21.0430769 C84.1961744,19.9751282 83.8687326,18.7507692 83.8687326,17.4520513 C83.8687326,13.2994872 86.352686,8.63153847 91.301407,5.16358974 C87.2096628,2.33410257 81.5459419,0.304615384 74.4598953,0.00461538461" id="Fill-5" fill="#17B5EA"></path>
            <path d="M98.0607791,21.0425641 L109.285895,1.55410257 C109.791128,0.677179487 109.380547,-0.0382051282 108.370081,0.00153846153 C101.042291,0.293846153 95.3478721,2.32717949 91.3008953,5.16435898 C96.3148489,8.63230769 98.9638023,13.2989743 98.9638023,17.4515384 C98.9638023,18.7515384 98.6363604,19.9733333 98.0607791,21.0425641" id="Fill-7" fill="#7DBB47"></path>
            <path d="M22.7426279,15.7338461 C23.8349534,15.7338461 24.8057674,15.9261539 25.6550698,16.3120513 C26.5043721,16.6966667 27.2257674,17.2235898 27.8243721,17.8928206 C28.4204186,18.5607692 28.8693721,19.3569231 29.1737907,20.28 C29.4769302,21.2017949 29.6291396,22.1902564 29.6291396,23.2428206 C29.6291396,23.628718 29.6125117,24.0082051 29.583093,24.3838461 C29.5523953,24.7594872 29.5178604,25.0569231 29.4769302,25.28 L19.406814,25.28 C19.4861163,26.4966667 19.9107674,27.3774359 20.6807674,27.9261539 C21.4482093,28.4723077 22.4586744,28.7453847 23.7147209,28.7453847 C24.4015814,28.7453847 25.1037907,28.68 25.8226279,28.5492308 C26.538907,28.4171794 27.2219302,28.23 27.8678604,27.9864102 C28.0916977,28.3915384 28.2822791,28.878718 28.446,29.4453847 C28.6071628,30.0133333 28.6979768,30.6210257 28.7184419,31.2697436 C27.1413489,31.8774359 25.3608837,32.1825641 23.3796047,32.1825641 C21.9240232,32.1825641 20.6756511,31.978718 19.6344883,31.5735898 C18.5933256,31.1684616 17.7427442,30.6069231 17.0865814,29.8864102 C16.4278604,29.1671794 15.943093,28.3107692 15.6297209,27.3171794 C15.3163489,26.3235898 15.1603023,25.2402564 15.1603023,24.0646153 C15.1603023,22.9094872 15.3214651,21.8248718 15.6450698,20.8120513 C15.9686744,19.7979487 16.4496047,18.9158974 17.0865814,18.1658974 C17.7235581,17.4171794 18.5114651,16.8235898 19.4515814,16.3876923 C20.3929768,15.9517949 21.4891396,15.7338461 22.7426279,15.7338461 Z M69.2901511,15.7339743 C71.3942209,15.7339743 73.0378256,16.2416667 74.219686,17.2544872 C75.4028256,18.2685898 75.9937558,19.8891026 75.9937558,22.1185898 L75.9937558,31.2403847 C75.2864302,31.4634616 74.4268953,31.676282 73.4164302,31.8788461 C72.404686,32.0801282 71.2624768,32.1826923 69.9885232,32.1826923 C68.957593,32.1826923 68.0123604,32.0903847 67.1528256,31.9083333 C66.2932907,31.726282 65.5539883,31.4211539 64.9387558,30.9955128 C64.3209651,30.5711539 63.8464302,30.023718 63.512593,29.3544872 C63.1787558,28.6852564 63.0124768,27.8647436 63.0124768,26.8916667 C63.0124768,25.9185898 63.219686,25.1032051 63.6341047,24.4455128 C64.0472442,23.7865384 64.5844534,23.2583333 65.2418953,22.8634616 C65.8980581,22.4685898 66.6322442,22.1839743 67.4406163,22.0121794 C68.2489883,21.8403847 69.0586396,21.7544872 69.8670117,21.7544872 C70.4541047,21.7544872 71.101314,21.7852564 71.8086396,21.8442308 L71.8086396,21.4801282 C71.8086396,20.9942308 71.7280581,20.5980769 71.5656163,20.2955128 C71.4044534,19.9903847 71.1818953,19.7532051 70.8992209,19.5801282 C70.6139883,19.4083333 70.2660814,19.2916667 69.8529419,19.2301282 C69.4372442,19.1685898 68.9767791,19.1391026 68.4715466,19.1391026 C67.3805,19.1391026 66.2165466,19.3519231 64.9848023,19.7788461 C64.7008489,19.250641 64.4885232,18.7544872 64.3465466,18.2878206 C64.2058489,17.8211539 64.1342209,17.2647436 64.1342209,16.6160257 C65.0244534,16.3121794 65.913407,16.0891026 66.8036396,15.9467949 C67.6938721,15.8044872 68.5214302,15.7339743 69.2901511,15.7339743 Z M2.36653489,15.9170513 C3.13397674,15.9170513 3.94362791,15.9773077 4.79293023,16.0991026 L7.82688372,26.6991026 L10.8058372,16.0991026 C11.2100232,16.0388461 11.6001396,15.9978206 11.9736279,15.9773077 C12.3483953,15.9580769 12.727,15.9478206 13.112,15.9478206 C13.4752558,15.9478206 13.8436279,15.9580769 14.2183953,15.9773077 C14.5918837,15.9978206 14.982,16.0388461 15.386186,16.0991026 L10.1918837,31.8183333 C9.76851163,31.8785898 9.3592093,31.9234616 8.96397674,31.9542308 C8.56874419,31.985 8.1492093,32.0003847 7.70537209,32.0003847 C7.30118604,32.0003847 6.90595349,31.985 6.52223256,31.9542308 C6.13723256,31.9234616 5.7125814,31.8785898 5.24827907,31.8183333 L0.000255813948,16.0991026 C0.344325581,16.059359 0.73827907,16.0183333 1.18339534,15.9773077 C1.62723256,15.9375641 2.02246511,15.9170513 2.36653489,15.9170513 Z M51.4114419,11.0798718 L51.4114419,16.0991026 L55.2550466,16.0991026 C55.3624883,16.7516667 55.4162093,17.3914102 55.4162093,18.0067949 C55.4162093,18.6042308 55.3624883,19.2478206 55.2550466,19.9003847 L55.2550466,19.9003847 L51.4114419,19.9003847 L51.4114419,25.1567949 C51.4114419,25.7926923 51.4613256,26.3055128 51.5623721,26.6952564 C51.6634186,27.085 51.8105117,27.3926923 52.0023721,27.6170513 C52.1942326,27.8439743 52.4321396,27.9978206 52.714814,28.0798718 C52.9987674,28.1619231 53.2353953,28.2029487 53.6203953,28.2029487 C53.9222558,28.2029487 54.1883023,28.1773077 54.4812093,28.1260257 C54.7741163,28.0747436 54.8853953,28.0426923 55.1437674,27.986282 C55.281907,28.3760257 55.3855117,28.7824359 55.4456279,29.2016667 C55.5070232,29.6234616 55.5377209,30.0324359 55.5377209,30.360641 C55.5377209,30.5875641 55.5326047,30.9029487 55.5223721,31.0555128 C55.5121396,31.209359 55.4967907,31.5183333 55.4763256,31.6619231 C54.5464419,31.8875641 53.6971396,32.0003847 52.7071396,32.0003847 C50.8665581,32.0003847 49.5900466,31.5644872 48.6205117,30.6926923 C47.6496977,29.8208974 47.1636511,28.4003847 47.1636511,26.4311539 L47.1636511,26.4311539 L47.1636511,16.0991026 L50.0543489,11.0798718 L51.4114419,11.0798718 Z M39.8593953,15.8244872 C41.6296279,15.8244872 42.9624186,16.3078206 43.8577674,17.2757692 C44.7505581,18.2424359 45.1995117,19.7655128 45.1995117,21.8411539 L45.1995117,31.8167949 C44.4755581,31.9398718 43.7618372,32.0001282 43.0583489,32.0001282 C42.3535814,32.0001282 41.6398604,31.9398718 40.915907,31.8167949 L40.915907,22.9885898 C40.915907,21.9014102 40.750907,21.0655128 40.4183489,20.4808974 C40.0870698,19.896282 39.5089302,19.6039743 38.6839302,19.6039743 C38.3411396,19.6039743 37.9906744,19.6539743 37.6274186,19.7552564 C37.2667209,19.8552564 36.9392791,20.0526923 36.6476511,20.343718 C36.3560232,20.6373077 36.1193953,21.045 35.9390466,21.569359 C35.7586977,22.0924359 35.6678837,22.7783333 35.6678837,23.6244872 L35.6678837,31.8167949 C34.9439302,31.9398718 34.2302093,32.0001282 33.5254419,32.0001282 C32.8219534,32.0001282 32.1082326,31.9398718 31.3842791,31.8167949 L31.3842791,16.1873077 C31.6656744,16.1270513 31.9470698,16.0808974 32.2297442,16.0514102 C32.5098604,16.020641 32.8219534,16.0052564 33.1647442,16.0052564 C33.5049768,16.0052564 33.8081163,16.020641 34.0690466,16.0514102 C34.3299768,16.0808974 34.6024186,16.1270513 34.8825349,16.1873077 C34.9439302,16.2885898 34.9989302,16.4347436 35.050093,16.6257692 C35.0986977,16.8180769 35.1434651,17.019359 35.1843953,17.2308974 C35.2253256,17.4411539 35.2598604,17.6488461 35.2905581,17.8501282 C35.3212558,18.0514102 35.3468372,18.2232051 35.3660232,18.3642308 C35.5668372,18.0616667 35.8073023,17.7591026 36.0899768,17.4565384 C36.3713721,17.1552564 36.6975349,16.8821794 37.0710232,16.6411539 C37.4419534,16.3988461 37.8589302,16.2014102 38.3219534,16.0514102 C38.7849768,15.9001282 39.2966047,15.8244872 39.8593953,15.8244872 Z M59.5094883,15.916282 C60.1771628,15.916282 60.8742558,15.9765384 61.6020466,16.0983333 L61.6020466,16.0983333 L61.6020466,31.8175641 C60.8742558,31.9380769 60.1656511,31.9996153 59.4787907,31.9996153 C58.8123953,31.9996153 58.1140232,31.9380769 57.3862326,31.8175641 L57.3862326,31.8175641 L57.3862326,16.0983333 C58.1140232,15.9765384 58.8226279,15.916282 59.5094883,15.916282 Z M70.2622442,24.550641 C69.2709651,24.550641 68.4868953,24.725 67.911314,25.0724359 C67.3344534,25.4198718 67.0466628,25.9801282 67.0466628,26.7532051 C67.0466628,27.2698718 67.1566628,27.6673077 67.3805,27.9442308 C67.6030581,28.223718 67.8703837,28.426282 68.1837558,28.5557692 C68.4971279,28.6839743 68.829686,28.7634616 69.1852674,28.7929487 C69.5382907,28.823718 69.8465466,28.8378206 70.1100349,28.8378206 C70.4131744,28.8378206 70.717593,28.8134616 71.0194534,28.7634616 C71.322593,28.7134616 71.5860814,28.6698718 71.8086396,28.6288461 L71.8086396,24.699359 C71.5656163,24.6596153 71.303407,24.625 71.0194534,24.5955128 C70.7367791,24.5660257 70.4835232,24.550641 70.2622442,24.550641 Z M22.6825117,19.1017949 C21.6707674,19.1017949 20.9033256,19.378718 20.3776279,19.931282 C19.8506511,20.4838461 19.5372791,21.2633333 19.4362326,22.2697436 L25.5642558,22.2697436 C25.5233256,21.3223077 25.2547209,20.5582051 24.7597209,19.9761539 C24.2634419,19.3941026 23.5714651,19.1017949 22.6825117,19.1017949 Z" id="Combined-Shape" fill="#0B3254"></path>
        </g>
    </g>
</svg>